<?xml version="1.0" encoding="utf-8"?>
<!-- Generator: Adobe Illustrator 16.0.4, SVG Export Plug-In . SVG Version: 6.00 Build 0)  -->
<!DOCTYPE svg PUBLIC "-//W3C//DTD SVG 1.1//EN" "http://www.w3.org/Graphics/SVG/1.1/DTD/svg11.dtd">
<svg version="1.1" id="Layer_1" xmlns="http://www.w3.org/2000/svg" xmlns:xlink="http://www.w3.org/1999/xlink" x="0px" y="0px"
	 width="99.213px" height="99.213px" viewBox="-14.036 137.035 99.213 99.213"
	 enable-background="new -14.036 137.035 99.213 99.213" xml:space="preserve">
<title>ic_heart</title>
<g>
	<path fill="#1A1A1A" d="M31.914,160.09c0,2.017,1.641,3.657,3.657,3.657c2.016,0,3.656-1.641,3.656-3.657s-1.641-3.657-3.656-3.657
		C33.554,156.433,31.914,158.073,31.914,160.09z M35.571,158.246c1.016,0,1.842,0.827,1.842,1.844s-0.826,1.844-1.842,1.844
		c-1.018,0-1.844-0.827-1.844-1.844S34.553,158.246,35.571,158.246z"/>
	<path fill="#1A1A1A" d="M36.477,153.714v-2.437c0-0.502-0.406-0.907-0.906-0.907c-0.502,0-0.908,0.405-0.908,0.907v2.437
		c0,0.501,0.406,0.907,0.908,0.907C36.071,154.621,36.477,154.215,36.477,153.714z"/>
	<path fill="#1A1A1A" d="M51.759,165.28c-1.426,1.426-1.426,3.746,0,5.172c0.715,0.713,1.65,1.068,2.586,1.068
		c0.938,0,1.875-0.355,2.586-1.068c1.426-1.426,1.426-3.746,0-5.172S53.185,163.854,51.759,165.28z M55.649,169.17
		c-0.719,0.718-1.889,0.718-2.607,0c-0.717-0.719-0.717-1.888,0-2.607c0.359-0.358,0.832-0.538,1.303-0.538
		c0.475,0,0.945,0.18,1.305,0.538C56.368,167.282,56.368,168.451,55.649,169.17z"/>
	<path fill="#1A1A1A" d="M41.317,180.896c-0.354-0.354-0.928-0.354-1.282,0l-4.464,4.463l-4.465-4.463
		c-0.354-0.354-0.928-0.354-1.281,0c-0.354,0.354-0.354,0.928,0,1.282l4.463,4.463l-4.463,4.463c-0.354,0.354-0.354,0.928,0,1.282
		c0.177,0.177,0.408,0.266,0.641,0.266s0.465-0.089,0.641-0.266l4.465-4.463l4.464,4.463c0.177,0.177,0.409,0.266,0.642,0.266
		c0.231,0,0.463-0.089,0.641-0.266c0.354-0.354,0.354-0.928,0-1.282l-4.465-4.463l4.465-4.463
		C41.67,181.824,41.67,181.25,41.317,180.896z"/>
	<path fill="#1A1A1A" d="M58.214,163.999c0.178,0.178,0.408,0.266,0.641,0.266s0.465-0.088,0.641-0.266l1.725-1.723
		c0.354-0.354,0.354-0.929,0-1.282c-0.355-0.354-0.93-0.354-1.283,0l-1.723,1.723C57.858,163.071,57.858,163.646,58.214,163.999z"/>
	<path fill="#1A1A1A" d="M65.78,186.642c0-2.017-1.641-3.657-3.658-3.657c-2.016,0-3.654,1.641-3.654,3.657
		c0,2.016,1.639,3.657,3.654,3.657C64.14,190.299,65.78,188.657,65.78,186.642z M62.122,188.485c-1.016,0-1.842-0.827-1.842-1.844
		s0.826-1.844,1.842-1.844c1.018,0,1.844,0.827,1.844,1.844S63.14,188.485,62.122,188.485z"/>
	<path fill="#1A1A1A" d="M70.935,185.734h-2.436c-0.502,0-0.908,0.405-0.908,0.907c0,0.501,0.406,0.906,0.908,0.906h2.436
		c0.502,0,0.908-0.405,0.908-0.906C71.843,186.14,71.437,185.734,70.935,185.734z"/>
	<path fill="#1A1A1A" d="M54.345,209.071c0.938,0,1.875-0.357,2.586-1.069c1.426-1.426,1.426-3.746,0-5.171
		c-1.426-1.426-3.746-1.426-5.172,0c-1.426,1.425-1.426,3.745,0,5.171C52.474,208.714,53.409,209.071,54.345,209.071z
		 M53.042,204.113c0.359-0.36,0.832-0.539,1.303-0.539c0.475,0,0.945,0.179,1.305,0.539c0.719,0.719,0.719,1.888,0,2.606
		c-0.719,0.718-1.889,0.718-2.607,0C52.325,206.001,52.325,204.832,53.042,204.113z"/>
	<path fill="#1A1A1A" d="M59.937,212.289c0.178,0.177,0.41,0.266,0.641,0.266c0.232,0,0.465-0.089,0.643-0.266
		c0.354-0.354,0.354-0.928,0-1.282l-1.725-1.724c-0.354-0.354-0.928-0.354-1.281,0c-0.355,0.354-0.355,0.929,0,1.282L59.937,212.289
		z"/>
	<path fill="#1A1A1A" d="M39.227,213.193c0-2.017-1.641-3.657-3.656-3.657c-2.017,0-3.657,1.641-3.657,3.657
		c0,2.016,1.641,3.657,3.657,3.657C37.586,216.851,39.227,215.209,39.227,213.193z M35.571,215.037
		c-1.018,0-1.844-0.827-1.844-1.844s0.826-1.844,1.844-1.844c1.016,0,1.842,0.827,1.842,1.844S36.586,215.037,35.571,215.037z"/>
	<path fill="#1A1A1A" d="M34.663,219.569v2.437c0,0.501,0.406,0.907,0.908,0.907c0.5,0,0.906-0.406,0.906-0.907v-2.437
		c0-0.502-0.406-0.907-0.906-0.907C35.069,218.662,34.663,219.067,34.663,219.569z"/>
	<path fill="#1A1A1A" d="M16.795,209.072c0.977,0,1.895-0.38,2.586-1.07c0.689-0.69,1.07-1.608,1.07-2.586
		c0-0.977-0.381-1.895-1.07-2.585c-1.426-1.426-3.746-1.426-5.172,0c-0.69,0.69-1.07,1.608-1.07,2.585
		c0,0.978,0.38,1.896,1.07,2.586S15.819,209.072,16.795,209.072z M15.493,204.113c0.359-0.36,0.831-0.539,1.303-0.539
		s0.943,0.179,1.303,0.539c0.349,0.349,0.541,0.811,0.541,1.303c0,0.493-0.192,0.955-0.541,1.304c-0.695,0.695-1.91,0.696-2.605,0
		c-0.349-0.349-0.541-0.811-0.541-1.304C14.952,204.924,15.144,204.462,15.493,204.113z"/>
	<path fill="#1A1A1A" d="M10.563,212.555c0.232,0,0.465-0.089,0.642-0.266l1.724-1.724c0.354-0.354,0.354-0.928,0-1.282
		c-0.354-0.354-0.928-0.354-1.283,0l-1.723,1.724c-0.354,0.354-0.354,0.928,0,1.282C10.1,212.466,10.332,212.555,10.563,212.555z"/>
	<path fill="#1A1A1A" d="M5.362,186.642c0,2.016,1.641,3.657,3.656,3.657c2.017,0,3.657-1.642,3.657-3.657
		c0-2.017-1.641-3.657-3.657-3.657C7.002,182.984,5.362,184.625,5.362,186.642z M9.018,184.798c1.017,0,1.844,0.827,1.844,1.844
		s-0.827,1.844-1.844,1.844c-1.016,0-1.842-0.827-1.842-1.844S8.002,184.798,9.018,184.798z"/>
	<path fill="#1A1A1A" d="M0.206,187.548h2.438c0.5,0,0.906-0.405,0.906-0.906c0-0.502-0.406-0.907-0.906-0.907H0.206
		c-0.5,0-0.906,0.405-0.906,0.907C-0.701,187.143-0.294,187.548,0.206,187.548z"/>
	<path fill="#1A1A1A" d="M16.795,164.21c-0.977,0-1.896,0.38-2.586,1.07c-0.69,0.691-1.07,1.609-1.07,2.586s0.38,1.896,1.07,2.586
		c0.713,0.713,1.649,1.069,2.586,1.069c0.936,0,1.873-0.356,2.586-1.069c0.689-0.69,1.07-1.609,1.07-2.586s-0.381-1.895-1.07-2.586
		C18.69,164.59,17.772,164.21,16.795,164.21z M18.098,169.17c-0.718,0.718-1.887,0.719-2.605,0
		c-0.349-0.349-0.541-0.812-0.541-1.304s0.192-0.954,0.541-1.304c0.348-0.347,0.811-0.539,1.303-0.539s0.955,0.192,1.303,0.539
		c0.349,0.35,0.541,0.812,0.541,1.304S18.447,168.821,18.098,169.17z"/>
	<path fill="#1A1A1A" d="M11.205,160.994c-0.354-0.354-0.928-0.354-1.282,0c-0.354,0.354-0.354,0.928,0,1.282l1.723,1.723
		c0.178,0.178,0.41,0.266,0.643,0.266c0.231,0,0.463-0.088,0.641-0.266c0.354-0.354,0.354-0.928,0-1.282L11.205,160.994z"/>
	<path fill="#1A1A1A" d="M26.833,158.726c-0.902-0.374-1.896-0.375-2.799-0.003c-0.902,0.373-1.606,1.075-1.98,1.978
		c-0.375,0.902-0.376,1.896-0.003,2.799c0.373,0.902,1.075,1.606,1.978,1.98c0.451,0.188,0.927,0.281,1.402,0.281
		c0.473,0,0.945-0.093,1.396-0.279c0.902-0.373,1.605-1.076,1.98-1.978s0.375-1.895,0.002-2.798S27.734,159.1,26.833,158.726z
		 M27.132,162.81c-0.188,0.454-0.544,0.808-0.999,0.996c-0.455,0.188-0.956,0.187-1.41-0.001c-0.455-0.188-0.809-0.544-0.996-0.998
		c-0.188-0.455-0.188-0.956,0-1.412c0.189-0.453,0.544-0.808,0.999-0.995c0.228-0.094,0.466-0.142,0.704-0.142
		c0.239,0,0.479,0.048,0.707,0.142c0.454,0.189,0.809,0.544,0.996,0.999S27.321,162.354,27.132,162.81z"/>
	<path fill="#1A1A1A" d="M27.519,167.156c-0.463,0.191-0.684,0.723-0.492,1.185l3.376,8.169c0.145,0.35,0.482,0.561,0.838,0.561
		c0.115,0,0.232-0.021,0.346-0.068c0.463-0.191,0.684-0.722,0.492-1.185l-3.375-8.169C28.512,167.186,27.982,166.965,27.519,167.156
		z"/>
	<path fill="#1A1A1A" d="M22.903,153.611c-0.191-0.463-0.721-0.684-1.185-0.492c-0.463,0.19-0.683,0.723-0.492,1.185l0.931,2.253
		c0.145,0.349,0.482,0.561,0.839,0.561c0.115,0,0.232-0.022,0.346-0.069c0.463-0.191,0.683-0.722,0.491-1.184L22.903,153.611z"/>
	<path fill="#1A1A1A" d="M44.354,158.74c-0.901,0.373-1.604,1.075-1.98,1.978c-0.373,0.902-0.375,1.896-0.002,2.798
		s1.076,1.606,1.977,1.981c0.457,0.189,0.932,0.279,1.398,0.279c1.434-0.001,2.798-0.85,3.383-2.254
		c0.771-1.862-0.113-4.007-1.975-4.78C46.25,158.368,45.257,158.366,44.354,158.74z M47.454,162.826
		c-0.39,0.938-1.471,1.385-2.408,0.995c-0.455-0.188-0.811-0.543-0.998-0.998s-0.188-0.955,0.002-1.41l0,0
		c0.189-0.456,0.544-0.809,0.999-0.997c0.227-0.095,0.464-0.141,0.703-0.141s0.478,0.047,0.706,0.142
		C47.397,160.807,47.842,161.888,47.454,162.826z"/>
	<path fill="#1A1A1A" d="M39.571,177.009c0.113,0.047,0.23,0.068,0.347,0.068c0.354,0,0.692-0.21,0.838-0.56l3.388-8.162
		c0.193-0.463-0.026-0.994-0.488-1.186c-0.461-0.192-0.994,0.027-1.186,0.49l-3.389,8.163
		C38.889,176.286,39.106,176.816,39.571,177.009z"/>
	<path fill="#1A1A1A" d="M49.478,153.143c-0.462-0.19-0.992,0.027-1.185,0.49l-0.934,2.251c-0.193,0.462,0.026,0.993,0.488,1.185
		c0.115,0.048,0.232,0.07,0.348,0.07c0.355,0,0.694-0.211,0.84-0.561l0.934-2.25C50.161,153.866,49.942,153.335,49.478,153.143z"/>
	<path fill="#1A1A1A" d="M58.708,179.878c0.451,0.188,0.928,0.281,1.402,0.281c0.473,0,0.945-0.092,1.396-0.278
		c0.902-0.373,1.605-1.075,1.98-1.978c0.375-0.901,0.375-1.896,0.002-2.799s-1.074-1.606-1.977-1.979
		c-0.9-0.375-1.896-0.376-2.799-0.004c-0.902,0.374-1.607,1.076-1.98,1.979c-0.375,0.901-0.375,1.895-0.002,2.798
		C57.103,178.801,57.806,179.504,58.708,179.878z M58.409,175.795c0.188-0.455,0.543-0.809,0.996-0.997
		c0.229-0.094,0.467-0.142,0.705-0.142s0.479,0.048,0.707,0.142c0.455,0.189,0.809,0.544,0.996,0.999s0.188,0.957-0.002,1.411
		s-0.543,0.809-0.998,0.996s-0.957,0.188-1.41,0c-0.455-0.189-0.809-0.544-0.996-0.999S58.22,176.249,58.409,175.795z"/>
	<path fill="#1A1A1A" d="M45.209,182.658c0.145,0.349,0.482,0.561,0.84,0.561c0.115,0,0.231-0.022,0.346-0.069l8.168-3.375
		c0.465-0.191,0.684-0.722,0.492-1.185c-0.193-0.464-0.721-0.684-1.186-0.492l-8.168,3.376
		C45.238,181.665,45.018,182.195,45.209,182.658z"/>
	<path fill="#1A1A1A" d="M69.093,172.789c-0.191-0.463-0.721-0.683-1.184-0.491l-2.254,0.93c-0.463,0.191-0.682,0.723-0.49,1.185
		c0.143,0.35,0.482,0.562,0.838,0.562c0.115,0,0.232-0.023,0.346-0.069l2.252-0.932C69.063,173.781,69.284,173.252,69.093,172.789z"
		/>
	<path fill="#1A1A1A" d="M63.47,198.225c0.373-0.902,0.375-1.896,0.002-2.798c-0.371-0.902-1.074-1.606-1.977-1.981
		c-0.9-0.374-1.895-0.374-2.799-0.001c-0.902,0.371-1.605,1.074-1.98,1.977s-0.377,1.896-0.002,2.799
		c0.373,0.902,1.074,1.605,1.977,1.979c0.453,0.188,0.928,0.283,1.402,0.283c0.473,0,0.945-0.094,1.396-0.28
		C62.392,199.829,63.097,199.127,63.47,198.225z M60.798,198.527c-0.457,0.188-0.957,0.186-1.412-0.002
		c-0.455-0.189-0.807-0.544-0.996-0.999c-0.189-0.454-0.189-0.955,0.002-1.41c0.293-0.708,0.98-1.137,1.705-1.137
		c0.232,0,0.473,0.046,0.703,0.142l0,0c0.455,0.188,0.809,0.543,0.996,0.998c0.188,0.454,0.188,0.955-0.002,1.411
		C61.606,197.985,61.253,198.338,60.798,198.527z"/>
	<path fill="#1A1A1A" d="M54.204,195.286c0.355,0,0.691-0.211,0.838-0.56c0.193-0.463-0.027-0.994-0.488-1.186l-8.167-3.39
		c-0.461-0.192-0.992,0.026-1.186,0.49c-0.19,0.462,0.029,0.992,0.491,1.185l8.164,3.389
		C53.97,195.263,54.089,195.286,54.204,195.286z"/>
	<path fill="#1A1A1A" d="M65.634,200.104l2.252,0.936c0.113,0.047,0.23,0.069,0.346,0.069c0.355,0,0.693-0.211,0.838-0.56
		c0.191-0.463-0.027-0.993-0.49-1.186l-2.25-0.934c-0.461-0.192-0.992,0.027-1.186,0.489
		C64.952,199.382,65.171,199.914,65.634,200.104z"/>
	<path fill="#1A1A1A" d="M44.308,214.557c0.452,0.188,0.927,0.281,1.403,0.281c0.473,0,0.945-0.092,1.395-0.277
		c0.904-0.374,1.607-1.076,1.98-1.979c0.376-0.901,0.376-1.896,0.004-2.798c-0.771-1.863-2.914-2.753-4.777-1.983
		s-2.752,2.913-1.983,4.776C42.704,213.479,43.407,214.183,44.308,214.557z M45.006,209.478c0.229-0.095,0.467-0.14,0.701-0.14
		c0.725,0,1.413,0.429,1.705,1.139c0.189,0.455,0.188,0.956,0,1.411c-0.189,0.453-0.543,0.808-0.998,0.995
		c-0.456,0.188-0.957,0.188-1.41,0c-0.455-0.189-0.81-0.543-0.998-0.999C43.62,210.945,44.067,209.865,45.006,209.478z"/>
	<path fill="#1A1A1A" d="M43.276,206.195c0.115,0,0.231-0.022,0.346-0.068c0.463-0.191,0.684-0.723,0.492-1.186l-3.377-8.169
		c-0.19-0.463-0.721-0.683-1.184-0.491s-0.682,0.721-0.491,1.184l3.376,8.169C42.581,205.984,42.919,206.195,43.276,206.195z"/>
	<path fill="#1A1A1A" d="M48.238,219.672c0.144,0.35,0.481,0.562,0.839,0.562c0.115,0,0.233-0.023,0.347-0.069
		c0.462-0.191,0.682-0.723,0.491-1.185l-0.931-2.253c-0.19-0.463-0.722-0.683-1.185-0.492c-0.463,0.191-0.684,0.722-0.492,1.185
		L48.238,219.672z"/>
	<path fill="#1A1A1A" d="M28.766,212.565c0.374-0.902,0.375-1.896,0.002-2.799s-1.075-1.606-1.978-1.98
		c-0.901-0.374-1.896-0.375-2.798-0.002c-0.903,0.372-1.607,1.075-1.981,1.977c-0.772,1.862,0.113,4.006,1.976,4.78
		c0.457,0.189,0.93,0.278,1.396,0.278C26.818,214.819,28.182,213.971,28.766,212.565L28.766,212.565z M27.091,211.87
		c-0.39,0.938-1.472,1.384-2.409,0.995c-0.939-0.39-1.385-1.47-0.996-2.408c0.189-0.455,0.543-0.81,0.998-0.997
		c0.229-0.094,0.466-0.141,0.705-0.141c0.238,0,0.479,0.047,0.706,0.143c0.455,0.188,0.809,0.542,0.997,0.997
		C27.28,210.915,27.28,211.415,27.091,211.87z"/>
	<path fill="#1A1A1A" d="M31.571,196.274c-0.461-0.192-0.992,0.027-1.186,0.49l-3.389,8.163c-0.192,0.462,0.027,0.993,0.49,1.185
		c0.113,0.048,0.23,0.07,0.346,0.07c0.356,0,0.693-0.211,0.838-0.56l3.39-8.164C32.252,196.997,32.034,196.466,31.571,196.274z"/>
	<path fill="#1A1A1A" d="M21.661,220.139c0.114,0.048,0.232,0.071,0.348,0.071c0.355,0,0.693-0.211,0.838-0.56l0.936-2.251
		c0.191-0.462-0.027-0.994-0.49-1.185c-0.461-0.193-0.992,0.026-1.186,0.488l-0.934,2.251
		C20.979,219.417,21.199,219.948,21.661,220.139z"/>
	<path fill="#1A1A1A" d="M12.428,200.161c0.902-0.373,1.605-1.075,1.98-1.978c0.374-0.901,0.375-1.896,0.002-2.799
		s-1.075-1.606-1.977-1.979c-0.902-0.375-1.896-0.376-2.799-0.004c-0.903,0.374-1.607,1.076-1.98,1.979
		c-0.375,0.901-0.376,1.895-0.004,2.798c0.374,0.903,1.076,1.606,1.979,1.98c0.451,0.188,0.927,0.281,1.402,0.281
		C11.504,200.439,11.977,200.348,12.428,200.161z M10.325,198.484c-0.455-0.189-0.809-0.544-0.996-0.999
		c-0.189-0.455-0.188-0.956,0-1.41c0.189-0.455,0.544-0.809,0.998-0.996c0.228-0.095,0.466-0.143,0.705-0.143
		c0.238,0,0.479,0.048,0.706,0.143c0.454,0.189,0.81,0.543,0.997,0.998s0.188,0.957-0.002,1.411
		c-0.188,0.454-0.543,0.809-0.998,0.996S10.778,198.672,10.325,198.484z"/>
	<path fill="#1A1A1A" d="M25.93,190.624c-0.191-0.462-0.719-0.683-1.184-0.491l-8.17,3.376c-0.462,0.191-0.683,0.722-0.491,1.184
		c0.144,0.351,0.481,0.562,0.839,0.562c0.115,0,0.232-0.022,0.346-0.069l8.168-3.375C25.901,191.618,26.122,191.088,25.93,190.624z"
		/>
	<path fill="#1A1A1A" d="M2.047,200.493c0.145,0.351,0.482,0.561,0.84,0.561c0.114,0,0.232-0.021,0.346-0.068l2.252-0.93
		c0.463-0.191,0.684-0.723,0.492-1.186c-0.191-0.462-0.722-0.682-1.186-0.492L2.54,199.31C2.077,199.501,1.856,200.03,2.047,200.493
		z"/>
	<path fill="#1A1A1A" d="M7.671,175.057c-0.375,0.903-0.376,1.897-0.003,2.8s1.075,1.605,1.978,1.98
		c0.452,0.188,0.927,0.281,1.402,0.281c0.474,0,0.946-0.094,1.396-0.279c0.902-0.372,1.606-1.075,1.979-1.977
		c0.375-0.902,0.377-1.896,0.004-2.799s-1.076-1.605-1.978-1.98c-0.902-0.375-1.896-0.375-2.8-0.003
		C8.749,173.453,8.045,174.155,7.671,175.057z M10.344,174.756c0.227-0.094,0.465-0.14,0.703-0.14c0.24,0,0.479,0.048,0.707,0.142
		c0.455,0.189,0.809,0.544,0.998,0.999c0.188,0.454,0.187,0.955-0.002,1.409c-0.189,0.455-0.543,0.81-0.998,0.997
		s-0.957,0.188-1.41-0.002c-0.001,0-0.001,0-0.001,0c-0.454-0.188-0.809-0.542-0.997-0.998c-0.188-0.454-0.188-0.955,0.002-1.41
		S9.889,174.944,10.344,174.756z"/>
	<path fill="#1A1A1A" d="M16.1,178.557c-0.193,0.462,0.026,0.993,0.489,1.185l8.163,3.39c0.113,0.048,0.23,0.07,0.347,0.07
		c0.355,0,0.692-0.211,0.838-0.56c0.192-0.463-0.027-0.993-0.489-1.185l-8.164-3.39C16.825,177.876,16.292,178.095,16.1,178.557z"/>
	<path fill="#1A1A1A" d="M5.508,173.178l-2.252-0.935c-0.461-0.191-0.992,0.027-1.185,0.489c-0.192,0.463,0.026,0.993,0.489,1.186
		l2.251,0.935c0.113,0.047,0.231,0.069,0.347,0.069c0.355,0,0.693-0.21,0.838-0.56C6.189,173.9,5.969,173.369,5.508,173.178z"/>
</g>
</svg>
