<?xml version="1.0" encoding="utf-8"?>
<!-- Generator: Adobe Illustrator 16.0.4, SVG Export Plug-In . SVG Version: 6.00 Build 0)  -->
<!DOCTYPE svg PUBLIC "-//W3C//DTD SVG 1.1//EN" "http://www.w3.org/Graphics/SVG/1.1/DTD/svg11.dtd">
<svg version="1.1" id="Layer_1" xmlns="http://www.w3.org/2000/svg" xmlns:xlink="http://www.w3.org/1999/xlink" x="0px" y="0px"
	 width="99.213px" height="99.213px" viewBox="-13.642 137.429 99.213 99.213"
	 enable-background="new -13.642 137.429 99.213 99.213" xml:space="preserve">
<title>ic_heart</title>
<g>
	<path fill="none" stroke="#000000" stroke-miterlimit="10" d="M47.35,153.137c-3.746-0.016-7.344,1.463-9.994,4.107l-2.547,2.547
		l-2.521-2.521c-5.51-5.479-14.41-5.479-19.92,0l0,0c-5.471,5.514-5.463,14.41,0.018,19.915l22.477,23.217l22.471-23.184
		c5.488-5.522,5.488-14.439,0-19.961l0,0c-2.645-2.642-6.232-4.124-9.971-4.116L47.35,153.137z"/>
	<line fill="none" stroke="#000000" stroke-miterlimit="10" x1="59.359" y1="186.269" x2="79.359" y2="200.401"/>
	<line fill="none" stroke="#000000" stroke-miterlimit="10" x1="51.693" y1="198.602" x2="76.025" y2="220.936"/>
	<line fill="none" stroke="#000000" stroke-miterlimit="10" x1="12.569" y1="186.269" x2="-7.431" y2="200.401"/>
	<line fill="none" stroke="#000000" stroke-miterlimit="10" x1="20.235" y1="198.602" x2="-4.098" y2="220.936"/>
</g>
</svg>
