<?xml version="1.0" encoding="utf-8"?>
<!-- Generator: Adobe Illustrator 16.0.4, SVG Export Plug-In . SVG Version: 6.00 Build 0)  -->
<!DOCTYPE svg PUBLIC "-//W3C//DTD SVG 1.1//EN" "http://www.w3.org/Graphics/SVG/1.1/DTD/svg11.dtd">
<svg version="1.1" id="Layer_1" xmlns="http://www.w3.org/2000/svg" xmlns:xlink="http://www.w3.org/1999/xlink" x="0px" y="0px"
	 width="99.213px" height="99.213px" viewBox="0 0 99.213 99.213" enable-background="new 0 0 99.213 99.213" xml:space="preserve">
<title>ic_heart</title>
<g>
	<g>
		<path fill="none" stroke="#000000" stroke-miterlimit="10" d="M83.147,21.543c-3.9-4.16-10.66-4.16-14.82-0.26
			c-4.16,3.9-4.16,10.66-0.26,14.82c0.78,0.78,1.56,2.08,1.819,3.12h-7.279c-5.72,0-10.4,4.68-10.4,10.4v31.201h5.2V49.624
			c0-2.86,2.34-5.2,5.2-5.2h7.279c-0.26,1.04-1.039,2.34-1.819,3.12c-3.9,4.161-3.9,10.66,0.26,14.82c2.08,1.82,4.68,2.86,7.28,2.86
			c2.6,0,5.46-1.04,7.54-3.12C93.808,50.923,93.808,32.723,83.147,21.543z"/>
		<path fill="none" stroke="#000000" stroke-miterlimit="10" d="M36.606,39.223h-2.6h-4.68c0.26-1.04,1.04-2.34,1.82-3.12
			c3.9-4.16,3.9-10.66-0.26-14.82c-4.16-3.9-10.92-3.9-14.82,0.26c-10.66,11.18-10.66,29.38,0,40.561c2.08,2.08,4.68,3.12,7.54,3.12
			c2.6,0,5.2-1.04,7.28-2.86c4.16-3.899,4.16-10.659,0.26-14.82c-0.78-0.78-1.56-2.08-1.82-3.12h4.68h2.6c2.86,0,5.2,2.34,5.2,5.2
			v31.201h5.2V49.624C47.007,43.903,42.327,39.223,36.606,39.223z"/>
	</g>
</g>
</svg>
