<?xml version="1.0" encoding="utf-8"?>
<!-- Generator: Adobe Illustrator 16.0.4, SVG Export Plug-In . SVG Version: 6.00 Build 0)  -->
<!DOCTYPE svg PUBLIC "-//W3C//DTD SVG 1.1//EN" "http://www.w3.org/Graphics/SVG/1.1/DTD/svg11.dtd">
<svg version="1.1" id="Layer_1" xmlns="http://www.w3.org/2000/svg" xmlns:xlink="http://www.w3.org/1999/xlink" x="0px" y="0px"
	 width="99.213px" height="99.213px" viewBox="-14.036 137.035 99.213 99.213"
	 enable-background="new -14.036 137.035 99.213 99.213" xml:space="preserve">
<title>ic_heart</title>
<path fill="none" stroke="#000000" stroke-miterlimit="10" d="M27.083,216.832c-4.477,0-8.193-3.502-8.46-7.974
	c-0.029-0.469-0.291-0.891-0.697-1.124c-2.646-1.512-4.29-4.335-4.29-7.367c0-0.403,0.039-0.844,0.118-1.344
	c0.105-0.665-0.28-1.309-0.916-1.529c-3.411-1.188-5.702-4.407-5.702-8.011c0-2.729,1.333-5.312,3.568-6.906
	c0.323-0.23,0.532-0.588,0.574-0.982s-0.086-0.788-0.353-1.082c-1.424-1.57-2.209-3.593-2.209-5.696
	c0-4.183,3.123-7.789,7.263-8.388c0.683-0.1,1.19-0.684,1.19-1.375c0-0.053-0.002-0.104-0.005-0.114
	c0-4.681,3.808-8.487,8.488-8.487c6.148-0.001,9.917,0.34,9.917,7.038v44.854C35.571,213.023,31.763,216.832,27.083,216.832z
	 M58.304,197.493c-0.637,0.22-1.021,0.865-0.915,1.53c0.08,0.498,0.117,0.937,0.117,1.341c0,3.034-1.643,5.857-4.289,7.37
	c-0.408,0.232-0.67,0.655-0.698,1.124c-0.266,4.471-3.982,7.974-8.459,7.974c-4.682,0-8.488-3.809-8.488-8.487V163.49
	c0-6.698,3.768-7.039,9.918-7.039c4.681,0,8.488,3.808,8.489,8.445c-0.003,0.034-0.006,0.124-0.006,0.157
	c0,0.69,0.505,1.275,1.189,1.375c4.141,0.598,7.263,4.204,7.263,8.387c0,2.104-0.785,4.127-2.209,5.695
	c-0.268,0.295-0.396,0.688-0.354,1.082c0.042,0.396,0.251,0.753,0.573,0.983c2.235,1.595,3.569,4.177,3.569,6.906
	C64.005,193.085,61.715,196.306,58.304,197.493z"/>
</svg>
