<?xml version="1.0" encoding="utf-8"?>
<!-- Generator: Adobe Illustrator 16.0.4, SVG Export Plug-In . SVG Version: 6.00 Build 0)  -->
<!DOCTYPE svg PUBLIC "-//W3C//DTD SVG 1.1//EN" "http://www.w3.org/Graphics/SVG/1.1/DTD/svg11.dtd">
<svg version="1.1" id="Layer_1" xmlns="http://www.w3.org/2000/svg" xmlns:xlink="http://www.w3.org/1999/xlink" x="0px" y="0px"
	 width="100px" height="100px" viewBox="0 0 100 100" enable-background="new 0 0 100 100" xml:space="preserve">
<circle fill="none" stroke="#000000" stroke-miterlimit="10" cx="50.364" cy="21.13" r="5.531"/>
<path fill="none" stroke="#000000" stroke-miterlimit="10" d="M64.33,20.129l5.865-12.988c0.377-0.712,0.105-1.594-0.606-1.972l0,0
	C68.9,4.804,68.046,5.045,67.65,5.717l-6.612,12.66l-5.841,8.24c-0.473,0.667-1.239,1.064-2.057,1.064h-5.935
	c-0.818,0-1.585-0.397-2.058-1.064l-5.853-8.262l0.013,0.004L32.352,6.234c-0.397-0.673-1.253-0.914-1.942-0.547l0,0
	c-0.711,0.378-0.982,1.261-0.604,1.972l6.21,12.468l6.312,12.821c0.45,0.913,0.664,1.924,0.625,2.941l-0.706,18.287
	c-0.011,0.289-0.006,0.579,0.016,0.867l1.113,19.471c-0.665,3.094-0.912,6.262-0.735,9.422l0.51,9.129
	C43.211,94.15,44.109,95,45.196,95l0,0c1.09,0,1.989-0.854,2.046-1.941l2.411-35.343h1.039l2.41,35.343
	C53.16,94.146,54.059,95,55.148,95l0,0c1.088,0,1.985-0.85,2.047-1.936l0.51-9.129c0.177-3.16-0.071-6.328-0.734-9.422l1.065-19.48
	c0.021-0.282,0.026-0.565,0.015-0.848l-0.703-18.209c-0.039-1.018,0.176-2.029,0.627-2.942L64.33,20.129z"/>
</svg>
