<?xml version="1.0" encoding="utf-8"?>
<!-- Generator: Adobe Illustrator 16.0.4, SVG Export Plug-In . SVG Version: 6.00 Build 0)  -->
<!DOCTYPE svg PUBLIC "-//W3C//DTD SVG 1.1//EN" "http://www.w3.org/Graphics/SVG/1.1/DTD/svg11.dtd">
<svg version="1.1" id="Layer_1" xmlns="http://www.w3.org/2000/svg" xmlns:xlink="http://www.w3.org/1999/xlink" x="0px" y="0px"
	 width="99.213px" height="99.213px" viewBox="0 0 99.213 99.213" enable-background="new 0 0 99.213 99.213" xml:space="preserve">
<title>ic_heart</title>
<g>
	<path fill="none" stroke="#000000" stroke-miterlimit="10" d="M77.014,67.042c1.46,0,2.436-0.533,2.674-1.467
		c0.384-1.496-1.038-3.998-5.079-6.215L54.694,48.44c-0.315-0.174-0.432-0.569-0.258-0.886c0.173-0.316,0.568-0.432,0.886-0.258
		l15.68,8.597c1.459,0.793,2.883,1.213,4.11,1.213h0.001c1.56,0,2.706-0.691,2.99-1.805c0.331-1.291-0.498-3.465-3.923-5.343
		L49.334,36.333c-0.246-0.135-0.998-0.547-0.904-1.288c0.132-1.06,1.771-1.482,5.731-2.506c1.452-0.375,3.098-0.799,4.882-1.32
		c3.387-0.987,5.525-4.468,5.176-6.919c-0.196-1.363-1.138-2.084-2.724-2.084c-0.642,0-1.421,0.007-2.192,0.357
		c-8.521,3.867-29.642,0.247-37.954,16.005c-4.775,9.052-0.496,17.319,13.153,24.803l22.562,12.373
		c1.483,0.814,2.926,1.244,4.17,1.244c1.558,0,2.704-0.689,2.99-1.801c0.331-1.281-0.483-3.441-3.868-5.318l-0.005-0.002
		l-13.388-7.342c-0.315-0.172-0.431-0.568-0.258-0.885s0.569-0.432,0.885-0.258l13.393,7.344c0.001,0,0.002,0,0.002,0l0.001,0.002
		l5.09,2.791c2.612,1.434,4.478,1.734,5.582,1.734c1.498,0,2.536-0.561,2.776-1.498c0.369-1.439-1.039-3.871-5.01-6.078
		L50.727,55.431c-0.316-0.172-0.433-0.568-0.259-0.885c0.173-0.316,0.569-0.432,0.885-0.26l20.02,10.979
		C74.051,66.733,75.919,67.042,77.014,67.042z"/>
</g>
</svg>
